<?xml version="1.0" standalone="no"?>
<!DOCTYPE svg PUBLIC "-//W3C//DTD SVG 20010904//EN"
 "http://www.w3.org/TR/2001/REC-SVG-20010904/DTD/svg10.dtd">
<svg version="1.0" xmlns="http://www.w3.org/2000/svg"
 width="100.000000pt" height="100.000000pt" viewBox="0 0 100.000000 100.000000"
 preserveAspectRatio="xMidYMid meet">

<g transform="translate(0.000000,100.000000) scale(0.100000,-0.100000)"
fill="#000000" stroke="none">
<path d="M96 984 c-14 -14 -16 -71 -16 -484 0 -413 2 -470 16 -484 13 -14 64
-16 404 -16 340 0 391 2 404 16 14 14 16 71 16 484 0 413 -2 470 -16 484 -13
14 -64 16 -404 16 -340 0 -391 -2 -404 -16z m779 -484 l0 -455 -375 0 -375 0
-3 445 c-1 245 0 451 3 458 3 10 84 12 377 10 l373 -3 0 -455z"/>
<path d="M480 870 c0 -43 3 -50 20 -50 17 0 20 7 20 50 0 43 -3 50 -20 50 -17
0 -20 -7 -20 -50z"/>
<path d="M160 376 c0 -191 2 -227 16 -240 12 -13 38 -16 120 -16 64 0 104 -4
104 -10 0 -18 64 -50 100 -50 36 0 100 32 100 50 0 6 40 10 104 10 82 0 108 3
120 16 14 13 16 49 16 240 0 217 -1 224 -20 224 -19 0 -20 -8 -22 -217 l-3
-218 -87 -3 c-83 -3 -88 -2 -88 18 0 11 6 20 14 20 7 0 25 12 40 26 35 36 36
95 1 129 -34 35 -93 34 -129 -1 -14 -15 -26 -33 -26 -40 0 -8 -9 -14 -20 -14
-11 0 -20 6 -20 14 0 7 -12 25 -26 40 -36 35 -95 36 -129 1 -35 -34 -34 -93 1
-129 15 -14 33 -26 40 -26 8 0 14 -9 14 -20 0 -20 -5 -21 -87 -18 l-88 3 -3
218 c-2 209 -3 217 -22 217 -19 0 -20 -7 -20 -224z m255 -50 c11 -8 19 -26 20
-42 0 -29 0 -29 65 -29 65 0 65 0 65 29 1 26 26 56 47 56 10 0 48 -38 48 -48
0 -21 -30 -46 -56 -47 -28 0 -29 -2 -30 -48 -1 -58 -27 -90 -74 -90 -47 0 -73
32 -74 90 -1 46 -2 48 -30 48 -26 1 -56 26 -56 47 0 10 38 48 48 48 5 0 17 -6
27 -14z"/>
<path d="M480 140 c0 -13 7 -20 20 -20 13 0 20 7 20 20 0 13 -7 20 -20 20 -13
0 -20 -7 -20 -20z"/>
<path d="M241 549 c-26 -64 -27 -89 -2 -89 13 0 25 16 40 51 26 64 27 89 2 89
-13 0 -25 -16 -40 -51z"/>
<path d="M321 549 c-26 -64 -27 -89 -2 -89 13 0 25 16 40 51 26 64 27 89 2 89
-13 0 -25 -16 -40 -51z"/>
<path d="M401 549 c-26 -64 -27 -89 -2 -89 13 0 25 16 40 51 26 64 27 89 2 89
-13 0 -25 -16 -40 -51z"/>
<path d="M481 549 c-26 -64 -27 -89 -2 -89 13 0 25 16 40 51 26 64 27 89 2 89
-13 0 -25 -16 -40 -51z"/>
<path d="M561 549 c-26 -64 -27 -89 -2 -89 13 0 25 16 40 51 26 64 27 89 2 89
-13 0 -25 -16 -40 -51z"/>
<path d="M641 549 c-26 -64 -27 -89 -2 -89 13 0 25 16 40 51 26 64 27 89 2 89
-13 0 -25 -16 -40 -51z"/>
<path d="M721 549 c-26 -64 -27 -89 -2 -89 13 0 25 16 40 51 26 64 27 89 2 89
-13 0 -25 -16 -40 -51z"/>
</g>
</svg>
